<svg width="163" height="173" viewBox="0 0 163 173" fill="none" xmlns="http://www.w3.org/2000/svg">
<g filter="url(#filter0_i)">
<rect x="35" width="128" height="128" rx="10" fill="white"/>
</g>
<g filter="url(#filter1_d)">
<rect x="10" y="20" width="128" height="128" rx="10" fill="white"/>
<rect x="10.5" y="20.5" width="127" height="127" rx="9.5" stroke="#EFEFEF"/>
</g>
<path d="M62.3184 83.582L63.248 74.0938H72.9551V74.8184H63.918L63.1113 82.8027C63.5853 82.4108 64.2096 82.0918 64.9844 81.8457C65.7682 81.5996 66.5339 81.4766 67.2812 81.4766C69.0677 81.4766 70.4941 82.0417 71.5605 83.1719C72.627 84.3021 73.1602 85.7969 73.1602 87.6562C73.1602 89.8164 72.6771 91.4616 71.7109 92.5918C70.7448 93.7129 69.3594 94.2734 67.5547 94.2734C65.8503 94.2734 64.474 93.7858 63.4258 92.8105C62.3776 91.8353 61.7852 90.4863 61.6484 88.7637H62.4004C62.5462 90.3223 63.0566 91.5072 63.9316 92.3184C64.8066 93.1296 66.0143 93.5352 67.5547 93.5352C69.1953 93.5352 70.4121 93.043 71.2051 92.0586C72.0072 91.0651 72.4082 89.6068 72.4082 87.6836C72.4082 86.0247 71.9434 84.6986 71.0137 83.7051C70.0931 82.7116 68.8535 82.2148 67.2949 82.2148C66.3379 82.2148 65.5039 82.3424 64.793 82.5977C64.082 82.8529 63.444 83.2539 62.8789 83.8008L62.3184 83.582ZM77.6582 83.582L78.5879 74.0938H88.2949V74.8184H79.2578L78.4512 82.8027C78.9251 82.4108 79.5495 82.0918 80.3242 81.8457C81.1081 81.5996 81.8737 81.4766 82.6211 81.4766C84.4076 81.4766 85.834 82.0417 86.9004 83.1719C87.9668 84.3021 88.5 85.7969 88.5 87.6562C88.5 89.8164 88.0169 91.4616 87.0508 92.5918C86.0846 93.7129 84.6992 94.2734 82.8945 94.2734C81.1901 94.2734 79.8138 93.7858 78.7656 92.8105C77.7174 91.8353 77.125 90.4863 76.9883 88.7637H77.7402C77.8861 90.3223 78.3965 91.5072 79.2715 92.3184C80.1465 93.1296 81.3542 93.5352 82.8945 93.5352C84.5352 93.5352 85.752 93.043 86.5449 92.0586C87.347 91.0651 87.748 89.6068 87.748 87.6836C87.748 86.0247 87.2832 84.6986 86.3535 83.7051C85.4329 82.7116 84.1934 82.2148 82.6348 82.2148C81.6777 82.2148 80.8438 82.3424 80.1328 82.5977C79.4219 82.8529 78.7839 83.2539 78.2188 83.8008L77.6582 83.582Z" fill="#32CC8B"/>
<defs>
<filter id="filter0_i" x="30" y="0" width="133" height="138" filterUnits="userSpaceOnUse" color-interpolation-filters="sRGB">
<feFlood flood-opacity="0" result="BackgroundImageFix"/>
<feBlend mode="normal" in="SourceGraphic" in2="BackgroundImageFix" result="shape"/>
<feColorMatrix in="SourceAlpha" type="matrix" values="0 0 0 0 0 0 0 0 0 0 0 0 0 0 0 0 0 0 127 0" result="hardAlpha"/>
<feOffset dx="-5" dy="10"/>
<feGaussianBlur stdDeviation="5"/>
<feComposite in2="hardAlpha" operator="arithmetic" k2="-1" k3="1"/>
<feColorMatrix type="matrix" values="0 0 0 0 0 0 0 0 0 0 0 0 0 0 0 0 0 0 0.07 0"/>
<feBlend mode="normal" in2="shape" result="effect1_innerShadow"/>
</filter>
<filter id="filter1_d" x="0" y="15" width="158" height="158" filterUnits="userSpaceOnUse" color-interpolation-filters="sRGB">
<feFlood flood-opacity="0" result="BackgroundImageFix"/>
<feColorMatrix in="SourceAlpha" type="matrix" values="0 0 0 0 0 0 0 0 0 0 0 0 0 0 0 0 0 0 127 0"/>
<feOffset dx="5" dy="10"/>
<feGaussianBlur stdDeviation="7.5"/>
<feColorMatrix type="matrix" values="0 0 0 0 0 0 0 0 0 0 0 0 0 0 0 0 0 0 0.1 0"/>
<feBlend mode="normal" in2="BackgroundImageFix" result="effect1_dropShadow"/>
<feBlend mode="normal" in="SourceGraphic" in2="effect1_dropShadow" result="shape"/>
</filter>
</defs>
</svg>
