<svg width="163" height="173" viewBox="0 0 163 173" fill="none" xmlns="http://www.w3.org/2000/svg">
<g filter="url(#filter0_i)">
<rect x="35" width="128" height="128" rx="10" fill="white"/>
</g>
<g filter="url(#filter1_d)">
<rect x="10" y="20" width="128" height="128" rx="10" fill="white"/>
<rect x="10.5" y="20.5" width="127" height="127" rx="9.5" stroke="#EFEFEF"/>
</g>
<path d="M34.1406 94H33.4023V75.0234L27.6875 77.1699V76.3633L33.9902 74.0391H34.1406V94ZM54.0879 85.8789C54.0879 88.5495 53.5684 90.6185 52.5293 92.0859C51.4902 93.5443 50.0319 94.2734 48.1543 94.2734C46.2858 94.2734 44.8229 93.5352 43.7656 92.0586C42.7083 90.582 42.1797 88.5039 42.1797 85.8242V82.2148C42.1797 79.5716 42.6992 77.5117 43.7383 76.0352C44.7865 74.5495 46.2493 73.8066 48.127 73.8066C50.0137 73.8066 51.4766 74.5495 52.5156 76.0352C53.5638 77.5117 54.0879 79.5898 54.0879 82.2695V85.8789ZM53.3496 82.2148C53.3496 79.7995 52.8939 77.9173 51.9824 76.5684C51.0801 75.2194 49.7949 74.5449 48.127 74.5449C46.4499 74.5449 45.1602 75.224 44.2578 76.582C43.3646 77.931 42.918 79.8314 42.918 82.2832V85.8516C42.918 88.2578 43.3783 90.14 44.2988 91.498C45.2194 92.8561 46.5046 93.5352 48.1543 93.5352C49.8132 93.5352 51.0938 92.8561 51.9961 91.498C52.8984 90.14 53.3496 88.235 53.3496 85.7832V82.2148ZM69.4277 85.8789C69.4277 88.5495 68.9082 90.6185 67.8691 92.0859C66.8301 93.5443 65.3717 94.2734 63.4941 94.2734C61.6257 94.2734 60.1628 93.5352 59.1055 92.0586C58.0482 90.582 57.5195 88.5039 57.5195 85.8242V82.2148C57.5195 79.5716 58.0391 77.5117 59.0781 76.0352C60.1263 74.5495 61.5892 73.8066 63.4668 73.8066C65.3535 73.8066 66.8164 74.5495 67.8555 76.0352C68.9036 77.5117 69.4277 79.5898 69.4277 82.2695V85.8789ZM68.6895 82.2148C68.6895 79.7995 68.2337 77.9173 67.3223 76.5684C66.4199 75.2194 65.1348 74.5449 63.4668 74.5449C61.7897 74.5449 60.5 75.224 59.5977 76.582C58.7044 77.931 58.2578 79.8314 58.2578 82.2832V85.8516C58.2578 88.2578 58.7181 90.14 59.6387 91.498C60.5592 92.8561 61.8444 93.5352 63.4941 93.5352C65.153 93.5352 66.4336 92.8561 67.3359 91.498C68.2383 90.14 68.6895 88.235 68.6895 85.7832V82.2148ZM91.4668 85.8789C91.4668 88.5495 90.9473 90.6185 89.9082 92.0859C88.8691 93.5443 87.4108 94.2734 85.5332 94.2734C83.6647 94.2734 82.2018 93.5352 81.1445 92.0586C80.0872 90.582 79.5586 88.5039 79.5586 85.8242V82.2148C79.5586 79.5716 80.0781 77.5117 81.1172 76.0352C82.1654 74.5495 83.6283 73.8066 85.5059 73.8066C87.3926 73.8066 88.8555 74.5495 89.8945 76.0352C90.9427 77.5117 91.4668 79.5898 91.4668 82.2695V85.8789ZM90.7285 82.2148C90.7285 79.7995 90.2728 77.9173 89.3613 76.5684C88.459 75.2194 87.1738 74.5449 85.5059 74.5449C83.8288 74.5449 82.5391 75.224 81.6367 76.582C80.7435 77.931 80.2969 79.8314 80.2969 82.2832V85.8516C80.2969 88.2578 80.7572 90.14 81.6777 91.498C82.5983 92.8561 83.8835 93.5352 85.5332 93.5352C87.1921 93.5352 88.4727 92.8561 89.375 91.498C90.2773 90.14 90.7285 88.235 90.7285 85.7832V82.2148ZM106.807 85.8789C106.807 88.5495 106.287 90.6185 105.248 92.0859C104.209 93.5443 102.751 94.2734 100.873 94.2734C99.0046 94.2734 97.5417 93.5352 96.4844 92.0586C95.4271 90.582 94.8984 88.5039 94.8984 85.8242V82.2148C94.8984 79.5716 95.418 77.5117 96.457 76.0352C97.5052 74.5495 98.9681 73.8066 100.846 73.8066C102.732 73.8066 104.195 74.5495 105.234 76.0352C106.283 77.5117 106.807 79.5898 106.807 82.2695V85.8789ZM106.068 82.2148C106.068 79.7995 105.613 77.9173 104.701 76.5684C103.799 75.2194 102.514 74.5449 100.846 74.5449C99.1686 74.5449 97.8789 75.224 96.9766 76.582C96.0833 77.931 95.6367 79.8314 95.6367 82.2832V85.8516C95.6367 88.2578 96.097 90.14 97.0176 91.498C97.9382 92.8561 99.2233 93.5352 100.873 93.5352C102.532 93.5352 103.812 92.8561 104.715 91.498C105.617 90.14 106.068 88.235 106.068 85.7832V82.2148ZM122.146 85.8789C122.146 88.5495 121.627 90.6185 120.588 92.0859C119.549 93.5443 118.09 94.2734 116.213 94.2734C114.344 94.2734 112.882 93.5352 111.824 92.0586C110.767 90.582 110.238 88.5039 110.238 85.8242V82.2148C110.238 79.5716 110.758 77.5117 111.797 76.0352C112.845 74.5495 114.308 73.8066 116.186 73.8066C118.072 73.8066 119.535 74.5495 120.574 76.0352C121.622 77.5117 122.146 79.5898 122.146 82.2695V85.8789ZM121.408 82.2148C121.408 79.7995 120.952 77.9173 120.041 76.5684C119.139 75.2194 117.854 74.5449 116.186 74.5449C114.508 74.5449 113.219 75.224 112.316 76.582C111.423 77.931 110.977 79.8314 110.977 82.2832V85.8516C110.977 88.2578 111.437 90.14 112.357 91.498C113.278 92.8561 114.563 93.5352 116.213 93.5352C117.872 93.5352 119.152 92.8561 120.055 91.498C120.957 90.14 121.408 88.235 121.408 85.7832V82.2148Z" fill="#0F9200"/>
<defs>
<filter id="filter0_i" x="30" y="0" width="133" height="138" filterUnits="userSpaceOnUse" color-interpolation-filters="sRGB">
<feFlood flood-opacity="0" result="BackgroundImageFix"/>
<feBlend mode="normal" in="SourceGraphic" in2="BackgroundImageFix" result="shape"/>
<feColorMatrix in="SourceAlpha" type="matrix" values="0 0 0 0 0 0 0 0 0 0 0 0 0 0 0 0 0 0 127 0" result="hardAlpha"/>
<feOffset dx="-5" dy="10"/>
<feGaussianBlur stdDeviation="5"/>
<feComposite in2="hardAlpha" operator="arithmetic" k2="-1" k3="1"/>
<feColorMatrix type="matrix" values="0 0 0 0 0 0 0 0 0 0 0 0 0 0 0 0 0 0 0.07 0"/>
<feBlend mode="normal" in2="shape" result="effect1_innerShadow"/>
</filter>
<filter id="filter1_d" x="0" y="15" width="158" height="158" filterUnits="userSpaceOnUse" color-interpolation-filters="sRGB">
<feFlood flood-opacity="0" result="BackgroundImageFix"/>
<feColorMatrix in="SourceAlpha" type="matrix" values="0 0 0 0 0 0 0 0 0 0 0 0 0 0 0 0 0 0 127 0"/>
<feOffset dx="5" dy="10"/>
<feGaussianBlur stdDeviation="7.5"/>
<feColorMatrix type="matrix" values="0 0 0 0 0 0 0 0 0 0 0 0 0 0 0 0 0 0 0.1 0"/>
<feBlend mode="normal" in2="BackgroundImageFix" result="effect1_dropShadow"/>
<feBlend mode="normal" in="SourceGraphic" in2="effect1_dropShadow" result="shape"/>
</filter>
</defs>
</svg>
