<svg width="163" height="173" viewBox="0 0 163 173" fill="none" xmlns="http://www.w3.org/2000/svg">
<g filter="url(#filter0_i)">
<rect x="35" width="128" height="128" rx="10" fill="white"/>
</g>
<g filter="url(#filter1_d)">
<rect x="10" y="20" width="128" height="128" rx="10" fill="white"/>
<rect x="10.5" y="20.5" width="127" height="127" rx="9.5" stroke="#EFEFEF"/>
</g>
<path d="M57.3203 94H45.4121V93.2617L52.207 85.4277C53.319 84.1243 54.1439 82.9668 54.6816 81.9551C55.2285 80.9434 55.502 80.0137 55.502 79.166C55.502 77.7077 55.0781 76.5775 54.2305 75.7754C53.3828 74.9642 52.1888 74.5586 50.6484 74.5586C49.7188 74.5586 48.8711 74.7819 48.1055 75.2285C47.3398 75.6751 46.7383 76.2949 46.3008 77.0879C45.8724 77.8717 45.6582 78.7467 45.6582 79.7129H44.9199C44.9199 78.6465 45.166 77.6576 45.6582 76.7461C46.1504 75.8346 46.834 75.1191 47.709 74.5996C48.584 74.0801 49.5638 73.8203 50.6484 73.8203C52.4167 73.8203 53.793 74.2897 54.7773 75.2285C55.7617 76.1673 56.2539 77.4798 56.2539 79.166C56.2539 80.7155 55.3835 82.5703 53.6426 84.7305L52.3984 86.248L46.3828 93.2617H57.3203V94ZM72.2773 85.8789C72.2773 88.5495 71.7578 90.6185 70.7188 92.0859C69.6797 93.5443 68.2214 94.2734 66.3438 94.2734C64.4753 94.2734 63.0124 93.5352 61.9551 92.0586C60.8978 90.582 60.3691 88.5039 60.3691 85.8242V82.2148C60.3691 79.5716 60.8887 77.5117 61.9277 76.0352C62.9759 74.5495 64.4388 73.8066 66.3164 73.8066C68.2031 73.8066 69.666 74.5495 70.7051 76.0352C71.7533 77.5117 72.2773 79.5898 72.2773 82.2695V85.8789ZM71.5391 82.2148C71.5391 79.7995 71.0833 77.9173 70.1719 76.5684C69.2695 75.2194 67.9844 74.5449 66.3164 74.5449C64.6393 74.5449 63.3496 75.224 62.4473 76.582C61.554 77.931 61.1074 79.8314 61.1074 82.2832V85.8516C61.1074 88.2578 61.5677 90.14 62.4883 91.498C63.4089 92.8561 64.694 93.5352 66.3438 93.5352C68.0026 93.5352 69.2832 92.8561 70.1855 91.498C71.0879 90.14 71.5391 88.235 71.5391 85.7832V82.2148ZM83.0098 94H82.2715V75.0234L76.5566 77.1699V76.3633L82.8594 74.0391H83.0098V94ZM103.34 94H91.4316V93.2617L98.2266 85.4277C99.3385 84.1243 100.163 82.9668 100.701 81.9551C101.248 80.9434 101.521 80.0137 101.521 79.166C101.521 77.7077 101.098 76.5775 100.25 75.7754C99.4023 74.9642 98.2083 74.5586 96.668 74.5586C95.7383 74.5586 94.8906 74.7819 94.125 75.2285C93.3594 75.6751 92.7578 76.2949 92.3203 77.0879C91.8919 77.8717 91.6777 78.7467 91.6777 79.7129H90.9395C90.9395 78.6465 91.1855 77.6576 91.6777 76.7461C92.1699 75.8346 92.8535 75.1191 93.7285 74.5996C94.6035 74.0801 95.5833 73.8203 96.668 73.8203C98.4362 73.8203 99.8125 74.2897 100.797 75.2285C101.781 76.1673 102.273 77.4798 102.273 79.166C102.273 80.7155 101.403 82.5703 99.6621 84.7305L98.418 86.248L92.4023 93.2617H103.34V94Z" fill="#32CC8B"/>
<defs>
<filter id="filter0_i" x="30" y="0" width="133" height="138" filterUnits="userSpaceOnUse" color-interpolation-filters="sRGB">
<feFlood flood-opacity="0" result="BackgroundImageFix"/>
<feBlend mode="normal" in="SourceGraphic" in2="BackgroundImageFix" result="shape"/>
<feColorMatrix in="SourceAlpha" type="matrix" values="0 0 0 0 0 0 0 0 0 0 0 0 0 0 0 0 0 0 127 0" result="hardAlpha"/>
<feOffset dx="-5" dy="10"/>
<feGaussianBlur stdDeviation="5"/>
<feComposite in2="hardAlpha" operator="arithmetic" k2="-1" k3="1"/>
<feColorMatrix type="matrix" values="0 0 0 0 0 0 0 0 0 0 0 0 0 0 0 0 0 0 0.07 0"/>
<feBlend mode="normal" in2="shape" result="effect1_innerShadow"/>
</filter>
<filter id="filter1_d" x="0" y="15" width="158" height="158" filterUnits="userSpaceOnUse" color-interpolation-filters="sRGB">
<feFlood flood-opacity="0" result="BackgroundImageFix"/>
<feColorMatrix in="SourceAlpha" type="matrix" values="0 0 0 0 0 0 0 0 0 0 0 0 0 0 0 0 0 0 127 0"/>
<feOffset dx="5" dy="10"/>
<feGaussianBlur stdDeviation="7.5"/>
<feColorMatrix type="matrix" values="0 0 0 0 0 0 0 0 0 0 0 0 0 0 0 0 0 0 0.1 0"/>
<feBlend mode="normal" in2="BackgroundImageFix" result="effect1_dropShadow"/>
<feBlend mode="normal" in="SourceGraphic" in2="effect1_dropShadow" result="shape"/>
</filter>
</defs>
</svg>
