<svg width="42" height="47" viewBox="0 0 42 47" fill="none" xmlns="http://www.w3.org/2000/svg">
<path d="M1.74772 29.6772L0.855069 30.8559C-0.116959 32.1395 0.135541 33.9681 1.41913 34.9403C2.70272 35.9123 4.53131 35.6598 5.50349 34.3762L6.39614 33.1975C7.36817 31.9139 7.11567 30.0853 5.83208 29.1131C4.54849 28.1411 2.71975 28.3936 1.74772 29.6772Z" fill="#F29F5C"/>
<path d="M7.18459 32.1561L5.50351 34.3759C4.53148 35.6595 4.78398 37.4881 6.06757 38.4603C7.35116 39.4323 9.17974 39.1798 10.1519 37.8962L11.833 35.6764C12.805 34.3928 12.5525 32.5642 11.269 31.592C9.98521 30.62 8.15662 30.8725 7.18459 32.1561Z" fill="#F29F5C"/>
<path d="M12.443 34.8707L10.1519 37.896C9.17992 39.1796 9.43242 41.0082 10.716 41.9804C11.9996 42.9524 13.8282 42.6999 14.8004 41.4163L17.0914 38.391C18.0635 37.1074 17.811 35.2789 16.5274 34.3067C15.2438 33.3345 13.4152 33.5871 12.443 34.8707Z" fill="#F29F5C"/>
<path d="M17.2244 38.2155L14.8004 41.4163C13.8284 42.6999 14.0809 44.5285 15.3644 45.5006C16.648 46.4727 18.4766 46.2202 19.4488 44.9366L21.8729 41.7358C22.8449 40.4522 22.5924 38.6236 21.3088 37.6515C20.0251 36.6794 18.1965 36.9319 17.2244 38.2155Z" fill="#F29F5C"/>
<path d="M41.5137 4.87983L34.1309 0.725C33.3434 0.281877 32.4397 0.0890648 31.5399 0.17219L19.8827 1.25031C18.4497 1.38281 17.1693 2.20046 16.4463 3.44483L8.2301 17.5867C7.62338 18.631 8.09963 19.9701 9.22947 20.3968L9.56556 20.5237C12.5773 21.6612 15.9785 20.6932 17.9399 18.1406L21.0879 14.0437C21.0879 14.0437 28.6549 22.8051 36.9861 12.5734" fill="#F29F5C"/>
</svg>
