<svg width="221" height="195" viewBox="0 0 221 195" fill="none" xmlns="http://www.w3.org/2000/svg">
<path d="M85.5907 59.1393C85.5907 59.1393 85.0882 54.7843 84.9207 53.9468C84.7532 53.1093 85.5907 42.2217 85.5907 42.2217L85.4232 37.5317L86.4282 33.6793L90.6157 31.1667L93.9657 26.3093L98.9907 20.4468L109.208 18.7718L116.578 16.2593L118.253 13.5793L119.425 14.2493C119.425 14.2493 120.933 10.0618 121.603 10.3968C122.273 10.7318 123.445 10.5643 123.445 10.5643L128.973 4.19927L131.318 2.18926L129.978 1.51928C129.978 1.51928 132.155 0.179274 133.16 0.0117743C134.165 -0.155726 140.865 1.51928 140.865 1.51928L145.22 4.53424C145.22 4.53424 147.063 7.38173 147.063 8.21923C147.063 9.05673 148.235 10.8993 148.738 12.2393C149.24 13.5793 148.905 15.4217 148.905 15.4217L147.23 16.4268C147.23 16.4268 149.073 18.1018 148.905 18.7718C148.738 19.4418 144.215 24.6343 144.215 24.6343L141.033 28.4867L139.023 27.4817L137.013 28.6542L135.505 29.6592C135.505 29.6592 135.003 29.9942 136.51 31.6692C138.018 33.3442 140.698 36.6943 140.698 36.6943L141.033 40.3793L142.875 41.7192V45.7393C142.875 45.7393 143.043 47.5817 144.55 46.9117C146.058 46.2417 149.073 47.9167 149.073 47.9167L148.57 51.2668L150.413 50.0942L152.255 49.7593C152.255 49.7593 153.595 50.5968 154.098 51.4343C154.6 52.2718 155.773 51.4343 156.61 50.9318C157.448 50.4293 158.453 50.4292 159.458 51.0992C160.463 51.7692 161.803 52.9418 161.803 52.9418L167.665 53.4443L170.01 51.7693L175.203 46.5768L180.06 46.9117L180.563 50.7643C180.563 50.7643 180.73 52.4392 181.065 53.2767C181.4 54.1142 181.903 57.4643 181.568 58.1343C181.233 58.8043 181.735 59.9768 179.893 60.3118C178.05 60.6468 176.375 61.4842 176.375 61.4842L177.38 119.271L178.888 141.046H176.878L174.198 104.364L173.863 80.2443L174.03 63.9972L173.863 61.4847L172.188 61.9872L172.69 63.6622L171.183 63.3273L170.178 62.6573L167.665 64.8348L164.315 65.5048L162.808 64.6672C162.808 64.6672 161.3 67.0123 160.63 66.5098C159.96 66.0073 156.945 65.3373 156.945 65.3373L147.23 66.5098H138.855L137.683 64.1647L135.17 62.9922L124.283 73.5442L126.293 79.4067L129.643 85.2692L139.693 101.851L145.556 108.384C145.556 108.384 150.078 113.074 150.246 113.744C150.413 114.414 150.246 117.429 150.246 117.429L155.773 122.454L158.286 127.981L161.971 139.538L165.153 146.071L165.823 150.928C165.823 150.928 171.686 156.121 172.356 156.456C173.026 156.791 176.878 164.663 176.878 164.663L178.051 167.176L187.263 172.703L188.696 173.487L209.875 183.423L219.255 187.276L220.093 189.286L211.383 194.31L182.573 177.56L154.601 161.648L149.073 158.131L147.901 146.239L138.688 134.849L135.003 128.987L130.816 121.617L130.146 116.927L125.289 113.074L120.263 108.552L118.756 106.039L118.086 116.926C118.086 116.926 116.578 120.276 116.243 120.946C115.908 121.616 117.081 127.479 117.081 128.316C117.081 129.154 118.924 135.686 119.091 136.356C119.259 137.026 121.101 144.061 121.101 144.061C121.101 144.061 124.116 149.923 125.121 150.761C126.126 151.598 142.541 163.826 142.541 163.826L148.068 166.674L151.083 166.339L152.591 169.689L139.024 170.023L104.017 141.884L79.227 121.617L89.277 122.454L102.509 133.174L102.006 126.809L99.6615 124.129L102.341 122.454L102.006 120.612L100.667 117.262L99.494 103.025L99.6615 97.832L88.6065 93.812C88.6065 93.812 84.419 90.2945 84.084 89.457C83.749 88.6195 81.404 82.422 81.404 82.422L83.5815 76.2245L85.2565 69.022L85.5915 63.327L9.37946 88.619L9.21198 92.4715L6.02948 90.1265L1.6745 91.8015L-0.000488281 89.7915L5.69446 88.7865L6.3645 84.599C6.3645 84.599 8.87698 84.934 9.21198 85.939C9.54698 86.944 85.759 59.809 85.592 59.139L85.5907 59.1393Z" fill="#EFF0BC"/>
</svg>
