<svg width="24" height="24" viewBox="0 0 24 24" fill="none" xmlns="http://www.w3.org/2000/svg">
<path fill-rule="evenodd" clip-rule="evenodd" d="M0.0999756 3.99998C0.0999756 3.50292 0.502919 3.09998 0.999976 3.09998H2.99998C3.40583 3.09998 3.76148 3.37161 3.86826 3.76317L4.51761 6.1441L19.0591 7.10192C19.5322 7.13308 19.9 7.52588 19.9 7.99998V14C19.9 14.4703 19.5379 14.8613 19.069 14.8973L6.069 15.8973C5.63858 15.9304 5.24527 15.6533 5.13169 15.2368L2.94987 7.23678L2.31256 4.89998H0.999976C0.502919 4.89998 0.0999756 4.49703 0.0999756 3.99998ZM7.8731 8.78169C7.75255 8.29948 7.26391 8.00629 6.78169 8.12685C6.29948 8.2474 6.00629 8.73604 6.12685 9.21826L7.12685 13.2183C7.2474 13.7005 7.73604 13.9937 8.21826 13.8731C8.70047 13.7526 8.99366 13.2639 8.8731 12.7817L7.8731 8.78169ZM11.3727 8.35902C11.8648 8.28873 12.3206 8.63064 12.3909 9.1227L12.8909 12.6227C12.9612 13.1148 12.6193 13.5706 12.1273 13.6409C11.6352 13.7112 11.1793 13.3693 11.109 12.8773L10.609 9.37725C10.5387 8.88519 10.8806 8.42932 11.3727 8.35902ZM16.9 9.49998C16.9 9.00292 16.497 8.59998 16 8.59998C15.5029 8.59998 15.1 9.00292 15.1 9.49998V12.5C15.1 12.997 15.5029 13.4 16 13.4C16.497 13.4 16.9 12.997 16.9 12.5V9.49998ZM9.99998 19C9.99998 20.1045 9.10454 21 7.99998 21C6.89541 21 5.99998 20.1045 5.99998 19C5.99998 17.8954 6.89541 17 7.99998 17C9.10454 17 9.99998 17.8954 9.99998 19ZM16 21C17.1045 21 18 20.1045 18 19C18 17.8954 17.1045 17 16 17C14.8954 17 14 17.8954 14 19C14 20.1045 14.8954 21 16 21Z" fill="#1C2733"/>
</svg>
