<svg width="80" height="80" viewBox="0 0 80 80" fill="none" xmlns="http://www.w3.org/2000/svg">
<path d="M74.7809 43.2186L65.781 29.7655C65.5466 20.8125 61.4687 12.4686 54.5309 6.79688C49.0466 2.34375 42.2966 0 35.3123 0C33.1093 0 30.9999 0.234375 28.7966 0.702969C17.2185 3.09359 7.84353 12.5155 5.49978 24.0938C3.34337 34.6406 6.57775 45.1406 14.2185 52.4531V77.6562C14.2185 78.9686 15.2496 80 16.5623 80H44.6873C45.9999 80 47.031 78.9686 47.031 77.6562V65.625H58.7498C62.6405 65.625 65.781 62.4842 65.781 58.5938V50.6719L73.8434 46.6406C74.4527 46.3125 74.9216 45.7966 75.0621 45.1406C75.2498 44.4844 75.156 43.7811 74.7809 43.2186Z" fill="#FFCEBF"/>
<path d="M75.0614 45.1406C74.9209 45.7967 74.452 46.3125 73.8426 46.6406L65.7803 50.6719V58.5938C65.7803 62.4842 62.6398 65.625 58.749 65.625H47.0303V77.6562C47.0303 78.9686 45.9992 80 44.6865 80H35.3115V0C42.2959 0 49.0459 2.34375 54.5301 6.79688C61.4678 12.4686 65.5459 20.8125 65.7803 29.7655L74.7801 43.2186C75.1553 43.7811 75.249 44.4844 75.0614 45.1406Z" fill="#FFBFAB"/>
<path d="M42.3428 53.9062C42.3428 55.2186 41.3117 56.25 39.999 56.25H30.624C29.3114 56.25 28.2803 55.2186 28.2803 53.9062C28.2803 52.5936 29.3114 51.5625 30.624 51.5625H39.999C41.3117 51.5625 42.3428 52.5936 42.3428 53.9062Z" fill="#FF7816"/>
<path d="M37.6553 16.4062V21.0938C37.6553 22.4061 36.6242 23.4375 35.3115 23.4375C33.9989 23.4375 32.9678 22.4061 32.9678 21.0938V16.4062C32.9678 15.0936 33.9989 14.0625 35.3115 14.0625C36.6242 14.0625 37.6553 15.0936 37.6553 16.4062Z" fill="#FF7816"/>
<path d="M41.9403 26.1838C41.3406 26.1838 40.7409 25.9549 40.2833 25.497C39.3678 24.5816 39.3678 23.0983 40.2833 22.1828L43.5975 18.8686C44.513 17.9531 45.9962 17.9531 46.9117 18.8686C47.8272 19.7841 47.8272 21.2674 46.9117 22.1828L43.5975 25.497C43.1395 25.9549 42.54 26.1838 41.9403 26.1838Z" fill="#FF4B00"/>
<path d="M49.374 32.8125H44.6865C43.3911 32.8125 42.3428 31.7642 42.3428 30.4688C42.3428 29.1733 43.3911 28.125 44.6865 28.125H49.374C50.6695 28.125 51.7178 29.1733 51.7178 30.4688C51.7178 31.7642 50.6695 32.8125 49.374 32.8125Z" fill="#FF4B00"/>
<path d="M25.9365 32.8125H21.249C19.9536 32.8125 18.9053 31.7642 18.9053 30.4688C18.9053 29.1733 19.9536 28.125 21.249 28.125H25.9365C27.232 28.125 28.2803 29.1733 28.2803 30.4688C28.2803 31.7642 27.232 32.8125 25.9365 32.8125Z" fill="#FF7816"/>
<path d="M27.0262 25.4973L23.712 22.1831C22.7965 21.2676 22.7965 19.7843 23.712 18.8689C24.6275 17.9534 26.1107 17.9534 27.0262 18.8689L30.3404 22.1831C31.2559 23.0985 31.2559 24.5818 30.3404 25.4973C29.425 26.4128 27.9418 26.4128 27.0262 25.4973Z" fill="#FF7816"/>
<path d="M35.3115 23.4375V14.0625C36.6242 14.0625 37.6553 15.0936 37.6553 16.4062V21.0938C37.6553 22.4061 36.6242 23.4375 35.3115 23.4375Z" fill="#FF4B00"/>
<path d="M42.3428 53.9062C42.3428 55.2186 41.3117 56.25 39.999 56.25H35.3115V51.5625H39.999C41.3117 51.5625 42.3428 52.5936 42.3428 53.9062Z" fill="#FF4B00"/>
<path d="M35.3119 18.75C34.4681 18.75 33.6244 18.8436 32.7808 19.0313C28.5619 19.9219 24.9994 23.3436 23.9683 27.5156C23.0308 31.3125 23.9214 35.2031 26.4525 38.1094C27.6713 39.5625 28.2806 40.9687 28.2806 42.328V44.5312C28.2806 45.8436 29.3117 46.875 30.6244 46.875H39.9994C41.312 46.875 42.3431 45.8436 42.3431 44.5312V41.8123C42.3431 40.4061 43.1869 39.2342 43.8431 38.4841C45.9056 36.328 47.0306 33.4687 47.0306 30.4686C47.0306 23.9061 41.6867 18.75 35.3119 18.75Z" fill="#FF9F00"/>
<path d="M47.0303 30.4688C47.0303 33.4688 45.9053 36.3281 43.8428 38.4842C43.1865 39.2344 42.3428 40.4062 42.3428 41.8125V44.5312C42.3428 45.8436 41.3117 46.875 39.999 46.875H35.3115V18.75C41.6864 18.75 47.0303 23.9061 47.0303 30.4688Z" fill="#FF7816"/>
</svg>
