<svg width="24" height="24" viewBox="0 0 24 24" fill="none" xmlns="http://www.w3.org/2000/svg">
<path fill-rule="evenodd" clip-rule="evenodd" d="M0.100098 4.0001C0.100098 3.50304 0.503041 3.1001 1.0001 3.1001H3.0001C3.40595 3.1001 3.7616 3.37174 3.86838 3.76329L4.51773 6.14422L19.0592 7.10204C19.5323 7.1332 19.9001 7.526 19.9001 8.0001V14.0001C19.9001 14.4704 19.538 14.8614 19.0691 14.8974L6.06912 15.8974C5.6387 15.9306 5.2454 15.6534 5.13181 15.2369L2.94999 7.2369L2.31268 4.9001H1.0001C0.503041 4.9001 0.100098 4.49715 0.100098 4.0001ZM7.87323 8.78182C7.75267 8.2996 7.26403 8.00642 6.78182 8.12697C6.2996 8.24752 6.00642 8.73616 6.12697 9.21838L7.12697 13.2184C7.24752 13.7006 7.73616 13.9938 8.21838 13.8732C8.70059 13.7527 8.99378 13.264 8.87323 12.7818L7.87323 8.78182ZM11.3728 8.35914C11.8649 8.28885 12.3208 8.63076 12.3911 9.12282L12.8911 12.6228C12.9613 13.1149 12.6194 13.5708 12.1274 13.6411C11.6353 13.7113 11.1794 13.3694 11.1091 12.8774L10.6091 9.37738C10.5388 8.88532 10.8808 8.42944 11.3728 8.35914ZM16.9001 9.5001C16.9001 9.00304 16.4972 8.6001 16.0001 8.6001C15.503 8.6001 15.1001 9.00304 15.1001 9.5001V12.5001C15.1001 12.9972 15.503 13.4001 16.0001 13.4001C16.4972 13.4001 16.9001 12.9972 16.9001 12.5001V9.5001ZM10.0001 19.0001C10.0001 20.1047 9.10467 21.0001 8.0001 21.0001C6.89553 21.0001 6.0001 20.1047 6.0001 19.0001C6.0001 17.8955 6.89553 17.0001 8.0001 17.0001C9.10467 17.0001 10.0001 17.8955 10.0001 19.0001ZM16.0001 21.0001C17.1047 21.0001 18.0001 20.1047 18.0001 19.0001C18.0001 17.8955 17.1047 17.0001 16.0001 17.0001C14.8955 17.0001 14.0001 17.8955 14.0001 19.0001C14.0001 20.1047 14.8955 21.0001 16.0001 21.0001Z" fill="white"/>
</svg>
