<svg width="16" height="16" viewBox="0 0 16 16" fill="none" xmlns="http://www.w3.org/2000/svg">
<path d="M9.61654 8.00006L15.6656 1.95086C16.1115 1.50437 16.1115 0.781364 15.6656 0.33487C15.2184 -0.111623 14.4949 -0.111623 14.0491 0.33487L8 6.38361L1.95091 0.33487C1.50394 -0.111623 0.781578 -0.111623 0.334379 0.33487C-0.11146 0.781364 -0.11146 1.50437 0.334379 1.95086L6.38347 8.00006L0.334379 14.049C-0.11146 14.4948 -0.11146 15.2183 0.334379 15.6655C0.558545 15.8883 0.850483 16 1.14265 16C1.43572 16 1.72788 15.8885 1.95069 15.6655L7.99977 9.61673L14.0489 15.6655C14.2717 15.8883 14.565 16 14.8569 16C15.1491 16 15.441 15.8885 15.6652 15.6655C16.111 15.2183 16.111 14.4948 15.6652 14.049L9.61654 8.00006Z" fill="white"/>
</svg>
