<svg width="80" height="80" viewBox="0 0 80 80" fill="none" xmlns="http://www.w3.org/2000/svg">
<g clip-path="url(#clip0)">
<path d="M70.6214 53.4238C68.4711 59.2514 65.2191 64.3185 60.9546 68.483C56.1005 73.223 49.7443 76.9894 42.0624 79.6762C41.8103 79.7641 41.5472 79.8361 41.283 79.8892C40.9338 79.9582 40.5786 79.9954 40.2264 80.0003H40.1575C39.7821 80.0003 39.4049 79.9625 39.0308 79.8892C38.7665 79.8361 38.5071 79.7641 38.2562 79.678C30.5652 76.9956 24.201 73.2309 19.342 68.4909C15.0757 64.3265 11.8243 59.2624 9.6771 53.4347C5.77268 42.839 5.99485 31.1667 6.17368 21.7868L6.17674 21.6427C6.21275 20.8682 6.23594 20.0546 6.24876 19.1562C6.31406 14.7451 9.82115 11.0959 14.2328 10.8499C23.4308 10.3366 30.5463 7.33669 36.626 1.41079L36.6791 1.36196C37.6886 0.436054 38.9606 -0.0180482 40.2264 0.000872818C41.4472 0.016742 42.663 0.470233 43.6365 1.36196L43.6884 1.41079C49.7693 7.33669 56.8848 10.3366 66.0828 10.8499C70.4944 11.0959 74.0015 14.7451 74.0668 19.1562C74.0796 20.0607 74.1028 20.8731 74.1388 21.6427L74.1407 21.7038C74.3189 31.1014 74.5398 42.7969 70.6214 53.4238Z" fill="#00DD80"/>
<path d="M70.6215 53.4236C68.4712 59.2513 65.2192 64.3184 60.9547 68.4828C56.1006 73.2228 49.7444 76.9893 42.0625 79.6761C41.8104 79.764 41.5474 79.836 41.2831 79.8891C40.934 79.9581 40.5787 79.9953 40.2266 80.0002V0.000732422C41.4473 0.0166016 42.6631 0.470093 43.6366 1.36182L43.6885 1.41065C49.7694 7.33655 56.8849 10.3364 66.0829 10.8497C70.4945 11.0957 74.0016 14.745 74.0669 19.156C74.0797 20.0606 74.1029 20.8729 74.1389 21.6426L74.1408 21.7036C74.319 31.1012 74.5399 42.7968 70.6215 53.4236Z" fill="#00AA63"/>
<path d="M60.0939 40.0004C60.0939 50.9703 51.187 59.8997 40.2263 59.9388H40.1561C29.1631 59.9388 20.2178 50.9941 20.2178 40.0004C20.2178 29.0073 29.1631 20.0626 40.1561 20.0626H40.2263C51.187 20.1017 60.0939 29.0311 60.0939 40.0004Z" fill="white"/>
<path d="M60.0941 40.0004C60.0941 50.9703 51.1873 59.8997 40.2266 59.9388V20.0626C51.1873 20.1017 60.0941 29.0311 60.0941 40.0004Z" fill="#E1EBF0"/>
<path d="M49.2055 37.1291L40.226 46.1098L38.2857 48.0501C37.8273 48.5085 37.2261 48.7373 36.6256 48.7373C36.0244 48.7373 35.4238 48.5085 34.9648 48.0501L30.793 43.8765C29.8763 42.9598 29.8763 41.4748 30.793 40.5574C31.7086 39.6407 33.1954 39.6407 34.1121 40.5574L36.6256 43.0708L45.8864 33.81C46.8032 32.8926 48.29 32.8926 49.2055 33.81C50.1223 34.7267 50.1223 36.2135 49.2055 37.1291Z" fill="#B4D2D7"/>
<path d="M49.2061 37.1291L40.2266 46.1098V39.4698L45.887 33.81C46.8037 32.8926 48.2905 32.8926 49.2061 33.81C50.1228 34.7267 50.1228 36.2135 49.2061 37.1291Z" fill="#6FA5AA"/>
</g>
<defs>
<clipPath id="clip0">
<rect width="80" height="80" fill="white"/>
</clipPath>
</defs>
</svg>
