<svg width="12" height="12" viewBox="0 0 12 12" fill="none" xmlns="http://www.w3.org/2000/svg">
<path d="M8.60012 8.3244L8.20943 8.91044C8.13144 9.02742 8.02831 9.12723 7.89239 9.16314C7.44717 9.28079 6.26518 9.33391 4.46564 7.53437C2.6661 5.73483 2.71921 4.55283 2.83686 4.10761C2.87277 3.97169 2.97258 3.86856 3.08956 3.79057L3.6756 3.39988C4.11192 3.109 4.22982 2.51949 3.93894 2.08316L2.83211 0.422911C2.57821 0.0420711 2.08876 -0.10343 1.66805 0.0768717L1.16875 0.290856C0.789457 0.453412 0.480056 0.745147 0.295508 1.11424C0.141324 1.42261 0.0218212 1.74734 0.00562971 2.09172C-0.0453961 3.17702 0.19258 5.85085 3.17088 8.82914C6.14917 11.8074 8.82298 12.0454 9.90828 11.9944C10.2527 11.9782 10.5774 11.8587 10.8858 11.7045C11.2549 11.5199 11.5466 11.2105 11.7091 10.8312L11.9231 10.3319C12.1034 9.91124 11.9579 9.42179 11.5771 9.16789L9.91683 8.06106C9.48051 7.77018 8.891 7.88808 8.60012 8.3244Z" fill="#32CC8B"/>
</svg>
