<svg width="266" height="231" viewBox="0 0 266 231" fill="none" xmlns="http://www.w3.org/2000/svg">
<mask id="path-1-inside-1" fill="white">
<path d="M181.692 33.4024C181.692 33.4024 183.765 29.9103 185.293 29.583C186.821 29.2557 189.767 27.8371 189.767 27.8371C189.767 27.8371 190.968 27.7279 190.968 27.1823C190.968 26.6367 190.858 22.8174 190.858 22.8174C190.858 22.8174 189.658 18.2342 189.331 17.143C189.003 16.0518 189.003 11.7959 189.222 10.7047C189.44 9.61351 191.186 5.57591 191.95 4.48471C192.714 3.39351 195.114 0.665409 195.878 0.665409C196.642 0.665409 198.934 -0.0984507 200.025 0.0106693C201.116 0.119789 205.372 1.32017 206.463 1.64757C207.554 1.97494 209.737 3.06617 211.046 3.93917C212.356 4.81216 214.32 5.68517 214.647 6.77637C214.975 7.86757 215.739 8.30407 215.739 9.72267C215.739 11.1413 215.957 12.5599 216.175 12.9964C216.393 13.4329 217.157 12.669 217.157 13.3237C217.157 13.9785 216.939 14.8514 216.83 15.5062C216.721 16.161 216.612 17.3613 216.393 17.9069C216.175 18.4526 216.284 19.1073 216.612 19.5438C216.939 19.9803 217.266 20.3077 217.375 20.9624C217.485 21.6172 217.703 21.6172 216.939 22.0536C216.175 22.4901 215.848 22.8175 215.848 22.8175C215.848 22.8175 215.957 22.5993 215.957 23.5814C215.957 24.5635 216.066 24.5635 215.848 25.1091C215.629 25.6547 215.411 25.8729 215.411 25.8729L214.647 27.6189L213.993 28.7101C213.993 28.7101 215.084 29.6923 214.429 30.5652C213.774 31.4382 213.447 32.3112 213.011 32.3112C212.574 32.3112 207.773 34.3846 207.773 34.3846C207.773 34.3846 211.592 37.1127 212.247 37.6583C212.901 38.204 214.757 39.7317 215.302 40.932C215.848 42.1324 217.157 46.3882 217.048 47.3703C216.939 48.3524 216.284 52.39 216.284 52.39C216.284 52.39 214.975 54.6816 215.193 55.1181C215.411 55.5546 215.848 57.9553 215.848 59.2648C215.848 60.5743 215.848 61.4473 215.739 62.5385C215.63 63.6297 216.503 63.9571 215.957 65.8122C215.411 67.6673 215.302 67.4491 215.084 68.2129C214.866 68.9768 219.776 72.9052 219.776 72.9052L229.27 70.8319L218.903 51.9539C218.903 51.9539 222.068 48.8984 222.286 49.3349C222.504 49.7714 233.089 65.7039 233.089 65.7039L236.799 67.1225L239.855 72.7969C239.855 72.7969 240.291 76.8345 240.073 77.4892C239.855 78.144 237.127 79.7808 237.127 79.7808L234.18 76.6162L228.506 77.4892L221.849 80.5447C221.849 80.5447 212.137 82.0724 210.718 82.0724C209.3 82.0724 206.79 82.0724 206.026 81.1994C205.262 80.3264 202.316 76.2888 202.316 76.2888L202.207 78.7986L200.352 80.3263C200.352 80.3263 198.169 83.2726 198.497 83.9274C198.824 84.5822 197.842 87.2011 197.842 87.2011C197.842 87.2011 197.405 89.9292 197.296 90.3657C197.187 90.8022 196.205 93.5303 196.205 93.5303C196.205 93.5303 195.55 95.1671 195.441 95.6036C195.332 96.0401 195.441 97.4587 195.332 98.4408C195.223 99.4229 194.022 100.732 194.022 100.732C194.022 100.732 193.913 103.788 194.022 104.334C194.132 104.879 194.132 107.935 194.132 107.935L202.316 115.464L210.5 124.958L211.482 127.686L215.193 131.724C215.193 131.724 217.266 134.67 217.593 135.216C217.921 135.761 221.74 139.799 221.74 139.799C221.74 139.799 224.141 141.654 224.032 142.745C223.922 143.836 223.813 148.965 223.813 148.965L223.159 152.239L224.905 159.768L226.76 166.861L230.252 176.9L235.49 193.814L238.763 198.179L240.291 198.398L243.019 199.271L244.547 201.235L245.638 201.889L249.566 201.671L254.695 200.253C254.695 200.253 256.332 199.707 256.441 200.362C256.55 201.016 254.15 202.217 253.277 202.326C252.404 202.435 250.221 202.981 250.221 202.981L249.566 204.29C249.566 204.29 250.112 204.399 251.312 204.727C252.513 205.054 254.15 205.382 254.15 205.382L257.423 206.145L260.37 204.399L262.989 204.072C262.989 204.072 264.516 204.727 264.735 205.163C264.953 205.6 265.062 207.455 265.062 207.455L263.753 209.856L258.515 214.221L254.804 216.185L248.475 216.73L241.055 216.512L233.525 217.931C233.525 217.931 230.143 216.73 229.924 216.294C229.706 215.857 229.051 212.038 229.051 212.038L227.742 206.254L227.851 203.745L220.867 184.867L216.611 174.5C216.611 174.5 212.246 169.371 212.028 168.716C211.81 168.061 210.282 163.26 210.282 162.496C210.282 161.732 210.064 155.185 210.064 155.185L208.863 150.056L204.28 146.018L198.06 143.509L192.495 140.453L184.31 135.433L178.636 147.546C178.636 147.546 176.126 149.729 175.69 150.165C175.253 150.602 169.579 157.477 169.579 157.477L165.869 163.151L161.067 165.988L153.101 161.842C153.101 161.842 146.772 158.677 145.681 158.35C144.59 158.022 133.132 151.366 133.132 151.366L125.493 145.909L117.309 143.618L107.706 143.4L96.248 142.308H87.5181L82.6075 146.346L78.0243 145.8C78.0243 145.8 77.806 142.963 78.679 141.872C79.552 140.781 81.9527 137.944 83.2622 136.634C84.5717 135.325 89.3731 132.051 89.8096 131.833C90.2461 131.614 91.7738 130.196 94.2837 129.759C96.7935 129.323 99.849 129.105 100.504 128.996C101.158 128.886 102.468 128.341 104.214 127.686C105.96 127.031 106.615 126.595 108.688 126.049C110.761 125.504 112.071 124.958 112.071 124.958C112.071 124.958 114.144 125.285 114.471 126.595C114.799 127.904 115.563 129.65 115.563 129.65C115.563 129.65 115.563 130.305 115.89 130.96C116.217 131.615 118.291 132.706 119.6 133.361C120.91 134.015 122.001 134.67 122.983 134.997C123.965 135.325 131.604 138.053 132.04 138.489C132.477 138.926 138.37 141.545 139.352 141.872C140.334 142.2 149.5 143.727 149.5 143.727L153.537 145.255L157.247 146.019C157.247 146.019 157.466 140.89 157.466 140.235C157.466 139.58 158.448 133.688 158.339 132.815C158.23 131.942 159.43 126.486 159.648 126.049C159.866 125.613 161.394 122.012 161.394 122.012L163.249 118.847C163.249 118.847 161.285 114.919 160.958 114.373C160.63 113.827 158.884 107.171 159.321 106.734C159.757 106.298 158.775 103.679 158.775 103.679C158.775 103.679 158.884 101.496 159.103 100.951C159.321 100.405 162.267 94.5123 162.267 94.5123L165.432 89.2744L167.069 81.9631L168.16 74.4336L169.033 68.9774L170.015 61.6661V57.9559L171.324 54.7913L169.906 53.5909L164.995 55.8825C164.995 55.8825 152.882 57.9558 152.228 57.5193C151.574 57.0828 150.373 60.0291 150.264 60.4656C150.155 60.9021 145.135 77.3796 145.026 77.9256C144.917 78.4712 144.699 87.3102 144.917 87.7467C145.135 88.1832 149.609 94.6215 149.5 95.1671C149.391 95.7127 147.973 98.9864 147.209 99.6412C146.445 100.296 141.752 102.26 141.098 101.824C140.443 101.387 138.042 99.8595 137.824 99.423C137.606 98.9865 137.715 95.2763 137.933 94.076C138.151 92.8756 138.915 87.9651 138.915 87.5286C138.915 87.0921 138.915 79.4534 139.024 78.9078C139.133 78.3622 139.679 69.6323 139.788 69.1958C139.897 68.7593 141.207 58.8288 141.207 58.8288C141.207 58.8288 143.389 52.3905 143.826 51.7358C144.262 51.0811 148.846 46.8252 149.282 46.7161C149.719 46.607 158.558 42.1329 159.649 42.242C160.74 42.3512 166.742 41.0416 166.742 41.0416C166.742 41.0416 169.47 35.3672 171.543 34.7124C173.617 34.0577 181.582 33.2938 181.691 33.4029L181.692 33.4024Z"/>
</mask>
<path d="M181.692 33.4024C181.692 33.4024 183.765 29.9103 185.293 29.583C186.821 29.2557 189.767 27.8371 189.767 27.8371C189.767 27.8371 190.968 27.7279 190.968 27.1823C190.968 26.6367 190.858 22.8174 190.858 22.8174C190.858 22.8174 189.658 18.2342 189.331 17.143C189.003 16.0518 189.003 11.7959 189.222 10.7047C189.44 9.61351 191.186 5.57591 191.95 4.48471C192.714 3.39351 195.114 0.665409 195.878 0.665409C196.642 0.665409 198.934 -0.0984507 200.025 0.0106693C201.116 0.119789 205.372 1.32017 206.463 1.64757C207.554 1.97494 209.737 3.06617 211.046 3.93917C212.356 4.81216 214.32 5.68517 214.647 6.77637C214.975 7.86757 215.739 8.30407 215.739 9.72267C215.739 11.1413 215.957 12.5599 216.175 12.9964C216.393 13.4329 217.157 12.669 217.157 13.3237C217.157 13.9785 216.939 14.8514 216.83 15.5062C216.721 16.161 216.612 17.3613 216.393 17.9069C216.175 18.4526 216.284 19.1073 216.612 19.5438C216.939 19.9803 217.266 20.3077 217.375 20.9624C217.485 21.6172 217.703 21.6172 216.939 22.0536C216.175 22.4901 215.848 22.8175 215.848 22.8175C215.848 22.8175 215.957 22.5993 215.957 23.5814C215.957 24.5635 216.066 24.5635 215.848 25.1091C215.629 25.6547 215.411 25.8729 215.411 25.8729L214.647 27.6189L213.993 28.7101C213.993 28.7101 215.084 29.6923 214.429 30.5652C213.774 31.4382 213.447 32.3112 213.011 32.3112C212.574 32.3112 207.773 34.3846 207.773 34.3846C207.773 34.3846 211.592 37.1127 212.247 37.6583C212.901 38.204 214.757 39.7317 215.302 40.932C215.848 42.1324 217.157 46.3882 217.048 47.3703C216.939 48.3524 216.284 52.39 216.284 52.39C216.284 52.39 214.975 54.6816 215.193 55.1181C215.411 55.5546 215.848 57.9553 215.848 59.2648C215.848 60.5743 215.848 61.4473 215.739 62.5385C215.63 63.6297 216.503 63.9571 215.957 65.8122C215.411 67.6673 215.302 67.4491 215.084 68.2129C214.866 68.9768 219.776 72.9052 219.776 72.9052L229.27 70.8319L218.903 51.9539C218.903 51.9539 222.068 48.8984 222.286 49.3349C222.504 49.7714 233.089 65.7039 233.089 65.7039L236.799 67.1225L239.855 72.7969C239.855 72.7969 240.291 76.8345 240.073 77.4892C239.855 78.144 237.127 79.7808 237.127 79.7808L234.18 76.6162L228.506 77.4892L221.849 80.5447C221.849 80.5447 212.137 82.0724 210.718 82.0724C209.3 82.0724 206.79 82.0724 206.026 81.1994C205.262 80.3264 202.316 76.2888 202.316 76.2888L202.207 78.7986L200.352 80.3263C200.352 80.3263 198.169 83.2726 198.497 83.9274C198.824 84.5822 197.842 87.2011 197.842 87.2011C197.842 87.2011 197.405 89.9292 197.296 90.3657C197.187 90.8022 196.205 93.5303 196.205 93.5303C196.205 93.5303 195.55 95.1671 195.441 95.6036C195.332 96.0401 195.441 97.4587 195.332 98.4408C195.223 99.4229 194.022 100.732 194.022 100.732C194.022 100.732 193.913 103.788 194.022 104.334C194.132 104.879 194.132 107.935 194.132 107.935L202.316 115.464L210.5 124.958L211.482 127.686L215.193 131.724C215.193 131.724 217.266 134.67 217.593 135.216C217.921 135.761 221.74 139.799 221.74 139.799C221.74 139.799 224.141 141.654 224.032 142.745C223.922 143.836 223.813 148.965 223.813 148.965L223.159 152.239L224.905 159.768L226.76 166.861L230.252 176.9L235.49 193.814L238.763 198.179L240.291 198.398L243.019 199.271L244.547 201.235L245.638 201.889L249.566 201.671L254.695 200.253C254.695 200.253 256.332 199.707 256.441 200.362C256.55 201.016 254.15 202.217 253.277 202.326C252.404 202.435 250.221 202.981 250.221 202.981L249.566 204.29C249.566 204.29 250.112 204.399 251.312 204.727C252.513 205.054 254.15 205.382 254.15 205.382L257.423 206.145L260.37 204.399L262.989 204.072C262.989 204.072 264.516 204.727 264.735 205.163C264.953 205.6 265.062 207.455 265.062 207.455L263.753 209.856L258.515 214.221L254.804 216.185L248.475 216.73L241.055 216.512L233.525 217.931C233.525 217.931 230.143 216.73 229.924 216.294C229.706 215.857 229.051 212.038 229.051 212.038L227.742 206.254L227.851 203.745L220.867 184.867L216.611 174.5C216.611 174.5 212.246 169.371 212.028 168.716C211.81 168.061 210.282 163.26 210.282 162.496C210.282 161.732 210.064 155.185 210.064 155.185L208.863 150.056L204.28 146.018L198.06 143.509L192.495 140.453L184.31 135.433L178.636 147.546C178.636 147.546 176.126 149.729 175.69 150.165C175.253 150.602 169.579 157.477 169.579 157.477L165.869 163.151L161.067 165.988L153.101 161.842C153.101 161.842 146.772 158.677 145.681 158.35C144.59 158.022 133.132 151.366 133.132 151.366L125.493 145.909L117.309 143.618L107.706 143.4L96.248 142.308H87.5181L82.6075 146.346L78.0243 145.8C78.0243 145.8 77.806 142.963 78.679 141.872C79.552 140.781 81.9527 137.944 83.2622 136.634C84.5717 135.325 89.3731 132.051 89.8096 131.833C90.2461 131.614 91.7738 130.196 94.2837 129.759C96.7935 129.323 99.849 129.105 100.504 128.996C101.158 128.886 102.468 128.341 104.214 127.686C105.96 127.031 106.615 126.595 108.688 126.049C110.761 125.504 112.071 124.958 112.071 124.958C112.071 124.958 114.144 125.285 114.471 126.595C114.799 127.904 115.563 129.65 115.563 129.65C115.563 129.65 115.563 130.305 115.89 130.96C116.217 131.615 118.291 132.706 119.6 133.361C120.91 134.015 122.001 134.67 122.983 134.997C123.965 135.325 131.604 138.053 132.04 138.489C132.477 138.926 138.37 141.545 139.352 141.872C140.334 142.2 149.5 143.727 149.5 143.727L153.537 145.255L157.247 146.019C157.247 146.019 157.466 140.89 157.466 140.235C157.466 139.58 158.448 133.688 158.339 132.815C158.23 131.942 159.43 126.486 159.648 126.049C159.866 125.613 161.394 122.012 161.394 122.012L163.249 118.847C163.249 118.847 161.285 114.919 160.958 114.373C160.63 113.827 158.884 107.171 159.321 106.734C159.757 106.298 158.775 103.679 158.775 103.679C158.775 103.679 158.884 101.496 159.103 100.951C159.321 100.405 162.267 94.5123 162.267 94.5123L165.432 89.2744L167.069 81.9631L168.16 74.4336L169.033 68.9774L170.015 61.6661V57.9559L171.324 54.7913L169.906 53.5909L164.995 55.8825C164.995 55.8825 152.882 57.9558 152.228 57.5193C151.574 57.0828 150.373 60.0291 150.264 60.4656C150.155 60.9021 145.135 77.3796 145.026 77.9256C144.917 78.4712 144.699 87.3102 144.917 87.7467C145.135 88.1832 149.609 94.6215 149.5 95.1671C149.391 95.7127 147.973 98.9864 147.209 99.6412C146.445 100.296 141.752 102.26 141.098 101.824C140.443 101.387 138.042 99.8595 137.824 99.423C137.606 98.9865 137.715 95.2763 137.933 94.076C138.151 92.8756 138.915 87.9651 138.915 87.5286C138.915 87.0921 138.915 79.4534 139.024 78.9078C139.133 78.3622 139.679 69.6323 139.788 69.1958C139.897 68.7593 141.207 58.8288 141.207 58.8288C141.207 58.8288 143.389 52.3905 143.826 51.7358C144.262 51.0811 148.846 46.8252 149.282 46.7161C149.719 46.607 158.558 42.1329 159.649 42.242C160.74 42.3512 166.742 41.0416 166.742 41.0416C166.742 41.0416 169.47 35.3672 171.543 34.7124C173.617 34.0577 181.582 33.2938 181.691 33.4029L181.692 33.4024Z" fill="white" stroke="#EFEFEF" stroke-width="2" mask="url(#path-1-inside-1)"/>
<mask id="path-2-inside-2" fill="white">
<path d="M62.843 51.0001C60.3473 50.9828 52.9282 53.8949 50.878 54.1227C48.6154 54.374 35.04 60.6594 35.04 60.6594L30.2648 62.421C30.2648 62.421 28.0008 62.6703 24.984 64.1787C21.9672 65.687 23.2263 65.4386 23.2263 65.4386L22.2191 67.9506H20.7103C20.7103 67.9506 13.1687 73.7323 12.1631 75.7435C11.1575 77.7547 8.89761 81.2737 7.64061 83.5363C6.38361 85.7989 5.88001 88.0645 4.62301 89.8242C3.36601 91.584 1.10241 96.8603 0.851009 97.8659L1.95541 100.047L6.75401 103.781C6.75401 103.781 12.0887 105.204 12.6219 105.915C13.1552 106.626 25.2409 115.87 25.2409 115.87L43.0199 124.223L48.1762 127.781L57.0617 133.113C57.0617 133.113 47.2851 136.49 45.3297 137.378C43.3743 138.267 38.9296 144.133 38.3963 144.845C37.863 145.556 30.2185 153.022 30.2185 153.022L24.7083 155.157L15.465 158.179L14.5784 156.577L10.4876 157.467L5.1563 159.956L3.0214 163.868L1.4232 166.357C1.4232 166.357 2.31204 168.488 1.4232 168.488C0.534371 168.488 0 170.976 0 170.976L2.4887 179.154L8.3566 194.444C8.3566 194.444 10.4898 199.244 10.8453 200.666C11.2008 202.088 18.6648 209.02 19.1981 209.909C19.7314 210.798 26.6643 213.463 26.6643 213.463L31.6418 209.909L30.3974 204.932L29.153 200.308C29.153 200.308 32.8878 202.087 33.7766 201.731C34.6654 201.376 35.1959 197.998 35.1959 197.998L31.1089 189.999L28.7991 182.175L29.5107 177.377L27.3758 176.665L31.8205 170.976C31.8205 170.976 35.908 167.244 36.6191 166.71C37.3302 166.177 44.7969 164.579 44.7969 164.579L65.7719 163.156L69.8627 179.687L76.7961 198.352L77.3289 202.797C77.3289 202.797 73.7736 209.198 73.5958 209.909C73.418 210.62 74.8402 214.886 74.8402 214.886L76.4384 218.795L74.1286 220.929C74.1286 220.929 71.1066 223.595 70.3955 223.951C69.6844 224.306 67.7279 225.016 67.7279 225.016L68.4395 226.797C68.4395 226.797 71.9943 226.797 72.7053 226.44C73.4163 226.084 75.7268 226.619 75.7268 226.619C75.7268 226.619 78.2178 226.975 79.8176 226.797C81.4175 226.62 86.3933 220.218 86.3933 220.218L108.438 228.217L112.346 230.173C112.346 230.173 115.372 226.796 115.372 225.907C115.372 225.018 114.835 223.418 114.835 223.418L92.7941 214.886L89.2399 200.666C89.2399 200.666 84.0813 185.2 83.7258 184.489C83.3703 183.777 81.9487 172.752 81.9487 172.752L80.3505 161.2L82.4815 160.846L90.8382 157.113L95.2829 151.598C95.2829 151.598 96.7034 146.444 96.8811 145.556C97.0589 144.667 94.0385 138.98 94.0385 138.98L89.5938 129.912L88.8822 126.357L84.6164 119.957C84.6164 119.957 86.9268 116.048 87.6379 115.337C88.349 114.626 91.7287 109.648 91.7287 109.648L95.9945 110.534L107.727 100.58L114.835 103.605L116.791 115.87L120.524 135.959L120.882 141.29L120.703 146.447L123.192 153.734L127.279 171.867L128.523 189.642L127.279 192.663C127.279 192.663 127.459 196.397 127.636 197.108C127.814 197.819 128.88 200.843 129.413 201.732C129.947 202.62 131.723 204.22 131.723 204.22L129.413 207.242C129.413 207.242 126.568 210.085 126.746 210.796C126.924 211.507 130.304 211.508 130.304 211.508C130.304 211.508 134.213 208.307 134.391 207.596C134.569 206.885 137.059 206.709 137.059 206.709L139.015 208.132L143.455 207.774L151.1 204.574C151.1 204.574 150.924 203.688 150.035 203.155C149.146 202.621 148.258 203.33 148.258 203.33L147.9 202.264C147.9 202.264 146.125 202.443 145.236 202.443C144.347 202.443 141.146 201.377 140.613 200.666C140.079 199.955 138.302 192.488 138.124 191.777C137.946 191.066 138.478 176.312 138.478 176.312L139.189 155.691C139.189 155.691 138.126 144.313 137.77 143.069C137.415 141.824 133.681 135.957 133.325 134.891C132.97 133.824 131.902 127.782 131.902 127.782L131.579 116.47L134.597 115.214L137.611 111.442L140.881 111.193L144.653 110.688L146.411 113.204C146.411 113.204 150.433 112.448 151.439 111.442C152.444 110.437 156.971 101.89 157.474 98.6213C157.977 95.3531 157.725 90.5774 157.474 87.3092C157.223 84.0411 155.964 81.2762 155.712 79.5164C155.461 77.7566 146.913 72.2261 144.902 70.2149C142.891 68.2037 135.097 69.2102 133.337 68.9588C131.578 68.7075 127.806 71.221 126.801 72.478C125.795 73.735 121.524 75.7446 121.524 75.7446L119.008 70.7165C118.505 69.7109 116.747 66.947 115.741 65.9414C114.736 64.9357 108.451 61.6661 107.949 60.6605C107.446 59.6549 95.1275 55.8853 95.1275 55.8853L78.0295 53.1205C78.0295 53.1205 64.9595 51.8604 63.4515 51.1061C63.3101 51.0352 63.1031 51.003 62.8449 51.0012L62.843 51.0001ZM71.818 104.85L70.5736 108.404L68.7926 105.383L71.818 104.85V104.85Z"/>
</mask>
<path d="M62.843 51.0001C60.3473 50.9828 52.9282 53.8949 50.878 54.1227C48.6154 54.374 35.04 60.6594 35.04 60.6594L30.2648 62.421C30.2648 62.421 28.0008 62.6703 24.984 64.1787C21.9672 65.687 23.2263 65.4386 23.2263 65.4386L22.2191 67.9506H20.7103C20.7103 67.9506 13.1687 73.7323 12.1631 75.7435C11.1575 77.7547 8.89761 81.2737 7.64061 83.5363C6.38361 85.7989 5.88001 88.0645 4.62301 89.8242C3.36601 91.584 1.10241 96.8603 0.851009 97.8659L1.95541 100.047L6.75401 103.781C6.75401 103.781 12.0887 105.204 12.6219 105.915C13.1552 106.626 25.2409 115.87 25.2409 115.87L43.0199 124.223L48.1762 127.781L57.0617 133.113C57.0617 133.113 47.2851 136.49 45.3297 137.378C43.3743 138.267 38.9296 144.133 38.3963 144.845C37.863 145.556 30.2185 153.022 30.2185 153.022L24.7083 155.157L15.465 158.179L14.5784 156.577L10.4876 157.467L5.1563 159.956L3.0214 163.868L1.4232 166.357C1.4232 166.357 2.31204 168.488 1.4232 168.488C0.534371 168.488 0 170.976 0 170.976L2.4887 179.154L8.3566 194.444C8.3566 194.444 10.4898 199.244 10.8453 200.666C11.2008 202.088 18.6648 209.02 19.1981 209.909C19.7314 210.798 26.6643 213.463 26.6643 213.463L31.6418 209.909L30.3974 204.932L29.153 200.308C29.153 200.308 32.8878 202.087 33.7766 201.731C34.6654 201.376 35.1959 197.998 35.1959 197.998L31.1089 189.999L28.7991 182.175L29.5107 177.377L27.3758 176.665L31.8205 170.976C31.8205 170.976 35.908 167.244 36.6191 166.71C37.3302 166.177 44.7969 164.579 44.7969 164.579L65.7719 163.156L69.8627 179.687L76.7961 198.352L77.3289 202.797C77.3289 202.797 73.7736 209.198 73.5958 209.909C73.418 210.62 74.8402 214.886 74.8402 214.886L76.4384 218.795L74.1286 220.929C74.1286 220.929 71.1066 223.595 70.3955 223.951C69.6844 224.306 67.7279 225.016 67.7279 225.016L68.4395 226.797C68.4395 226.797 71.9943 226.797 72.7053 226.44C73.4163 226.084 75.7268 226.619 75.7268 226.619C75.7268 226.619 78.2178 226.975 79.8176 226.797C81.4175 226.62 86.3933 220.218 86.3933 220.218L108.438 228.217L112.346 230.173C112.346 230.173 115.372 226.796 115.372 225.907C115.372 225.018 114.835 223.418 114.835 223.418L92.7941 214.886L89.2399 200.666C89.2399 200.666 84.0813 185.2 83.7258 184.489C83.3703 183.777 81.9487 172.752 81.9487 172.752L80.3505 161.2L82.4815 160.846L90.8382 157.113L95.2829 151.598C95.2829 151.598 96.7034 146.444 96.8811 145.556C97.0589 144.667 94.0385 138.98 94.0385 138.98L89.5938 129.912L88.8822 126.357L84.6164 119.957C84.6164 119.957 86.9268 116.048 87.6379 115.337C88.349 114.626 91.7287 109.648 91.7287 109.648L95.9945 110.534L107.727 100.58L114.835 103.605L116.791 115.87L120.524 135.959L120.882 141.29L120.703 146.447L123.192 153.734L127.279 171.867L128.523 189.642L127.279 192.663C127.279 192.663 127.459 196.397 127.636 197.108C127.814 197.819 128.88 200.843 129.413 201.732C129.947 202.62 131.723 204.22 131.723 204.22L129.413 207.242C129.413 207.242 126.568 210.085 126.746 210.796C126.924 211.507 130.304 211.508 130.304 211.508C130.304 211.508 134.213 208.307 134.391 207.596C134.569 206.885 137.059 206.709 137.059 206.709L139.015 208.132L143.455 207.774L151.1 204.574C151.1 204.574 150.924 203.688 150.035 203.155C149.146 202.621 148.258 203.33 148.258 203.33L147.9 202.264C147.9 202.264 146.125 202.443 145.236 202.443C144.347 202.443 141.146 201.377 140.613 200.666C140.079 199.955 138.302 192.488 138.124 191.777C137.946 191.066 138.478 176.312 138.478 176.312L139.189 155.691C139.189 155.691 138.126 144.313 137.77 143.069C137.415 141.824 133.681 135.957 133.325 134.891C132.97 133.824 131.902 127.782 131.902 127.782L131.579 116.47L134.597 115.214L137.611 111.442L140.881 111.193L144.653 110.688L146.411 113.204C146.411 113.204 150.433 112.448 151.439 111.442C152.444 110.437 156.971 101.89 157.474 98.6213C157.977 95.3531 157.725 90.5774 157.474 87.3092C157.223 84.0411 155.964 81.2762 155.712 79.5164C155.461 77.7566 146.913 72.2261 144.902 70.2149C142.891 68.2037 135.097 69.2102 133.337 68.9588C131.578 68.7075 127.806 71.221 126.801 72.478C125.795 73.735 121.524 75.7446 121.524 75.7446L119.008 70.7165C118.505 69.7109 116.747 66.947 115.741 65.9414C114.736 64.9357 108.451 61.6661 107.949 60.6605C107.446 59.6549 95.1275 55.8853 95.1275 55.8853L78.0295 53.1205C78.0295 53.1205 64.9595 51.8604 63.4515 51.1061C63.3101 51.0352 63.1031 51.003 62.8449 51.0012L62.843 51.0001ZM71.818 104.85L70.5736 108.404L68.7926 105.383L71.818 104.85V104.85Z" fill="white" stroke="#EFEFEF" stroke-width="2" mask="url(#path-2-inside-2)"/>
</svg>
