<svg width="24" height="24" viewBox="0 0 24 24" fill="none" xmlns="http://www.w3.org/2000/svg">
<g clip-path="url(#clip0)">
<path d="M21.5735 17.2129C21.5735 16.4554 21.7217 15.7169 22.0139 15.018L23.9999 10.2686L22.4841 10.6697C19.4562 11.4713 17.3413 14.2188 17.3413 17.351V20.6073H21.5734V17.2129H21.5735Z" fill="#A5E887"/>
<path d="M21.5735 17.2129C21.5735 16.4554 21.7217 15.7169 22.0139 15.018L23.9999 10.2686L22.4841 10.6697C19.4562 11.4713 17.3413 14.2188 17.3413 17.351V20.6073H21.5734V17.2129H21.5735Z" fill="#00CC76"/>
<path d="M1.51577 10.6696L0 10.2684L1.986 15.0178C2.27827 15.7168 2.42647 16.4553 2.42647 17.2129V20.6072H6.65854V17.3509C6.65854 14.2186 4.54379 11.4712 1.51577 10.6696Z" fill="#A5E887"/>
<path d="M18.7474 14.0232C18.7474 13.2468 18.8993 12.4898 19.1988 11.7735L21.2168 6.94775L19.6979 7.34993C16.6095 8.16745 14.4526 10.9697 14.4526 14.1644V20.6072H18.7474V14.0232H18.7474Z" fill="#00CC76"/>
<path d="M18.7474 14.0232C18.7474 13.2468 18.8993 12.4898 19.1988 11.7735L21.2168 6.94775L19.6979 7.34993C16.6095 8.16745 14.4526 10.9697 14.4526 14.1644V20.6072H18.7474V14.0232H18.7474Z" fill="#00AA95"/>
<path d="M4.3022 7.34998L2.7832 6.94775L4.80116 11.7735C5.1007 12.4899 5.2526 13.2468 5.2526 14.0233V20.6072H9.54738V14.1644C9.54738 10.9697 7.39045 8.1675 4.3022 7.34998Z" fill="#00CC76"/>
<path d="M16.3568 7.83994L18.5103 2.68982L17.1316 3.05483C14.8039 3.67101 12.9521 5.30095 11.9998 7.39329C11.0474 5.30095 9.1957 3.67105 6.86798 3.05483L5.48926 2.68982L7.64281 7.83994C7.97342 8.63047 8.14102 9.46576 8.14102 10.3227V20.6071H15.8585V10.3227C15.8585 9.46581 16.0261 8.63052 16.3568 7.83994Z" fill="#A5E887"/>
<path d="M17.1318 3.0549C14.8041 3.67108 12.9524 5.30102 12 7.39336V20.6072H15.8588V10.3228C15.8588 9.46588 16.0264 8.63059 16.357 7.84007L18.5105 2.68994L17.1318 3.0549Z" fill="#00CC76"/>
<path d="M0.00146484 19.9039H23.998V21.31H0.00146484V19.9039Z" fill="#00AA95"/>
<path d="M12 19.9039H23.9983V21.31H12V19.9039Z" fill="#008285"/>
</g>
<defs>
<clipPath id="clip0">
<rect width="24" height="24" fill="white"/>
</clipPath>
</defs>
</svg>
