<svg width="80" height="80" viewBox="0 0 80 80" fill="none" xmlns="http://www.w3.org/2000/svg">
<g clip-path="url(#clip0)">
<path d="M33.3154 75.7618C33.3154 78.0372 35.1592 79.882 37.4347 79.882H42.927C45.2019 79.882 47.0463 78.0372 47.0463 75.7618V67.5215H33.3154V75.7618Z" fill="#EBEBEB"/>
<path d="M26.8449 52.6294C25.6441 51.8555 24.5117 50.9784 23.4618 50.0094C22.5654 53.4569 19.1776 55.6431 15.6678 55.0396C12.1573 54.436 9.69405 51.2446 9.99911 47.6951C10.3042 44.1456 13.2763 41.4217 16.8384 41.427C17.0482 41.427 17.25 41.4706 17.4505 41.4887C16.1492 38.4288 15.478 35.1381 15.4787 31.8133H13.7308L12.7822 36.3271C12.6876 36.7771 12.3745 37.1499 11.9481 37.3203C11.521 37.4913 11.0376 37.437 10.6595 37.1761L6.86542 34.5601L2.74617 38.6802L5.35489 42.4745C5.6157 42.8534 5.67001 43.3369 5.49904 43.7634C5.32875 44.1906 4.95598 44.5037 4.50677 44.5976L0 45.5472V51.0408L4.51214 51.9897C4.96134 52.0842 5.33411 52.3974 5.50508 52.8239C5.67537 53.2504 5.62106 53.7346 5.36026 54.1128L2.74617 57.9077L6.86542 62.0279L10.6595 59.4179C11.0376 59.157 11.5217 59.1021 11.9488 59.2731C12.3759 59.4434 12.689 59.8169 12.7835 60.2669L13.7308 64.7747H19.2232L20.1705 60.2602C20.2651 59.8095 20.5782 59.4367 21.0052 59.2664C21.4323 59.0954 21.9164 59.1497 22.2945 59.4112L26.0886 62.0279L30.3989 57.7166C29.947 55.6116 28.6658 53.7775 26.8449 52.6294Z" fill="#C9DFFF"/>
<path d="M64.8968 31.8133C64.8955 19.9604 56.4833 9.776 44.8463 7.53888C33.2093 5.30176 21.6219 11.6403 17.2277 22.6482C12.8336 33.6561 16.8684 46.2346 26.8454 52.6294C29.1316 54.0471 30.5362 56.5343 30.5697 59.2248V64.7747C30.5697 67.05 32.4135 68.8948 34.689 68.8948H45.6736C47.9485 68.8948 49.7929 67.05 49.7929 64.7747V59.3388C49.8278 56.5846 51.2605 54.0377 53.5964 52.5784C60.6455 48.0264 64.9015 40.2059 64.8968 31.8133Z" fill="#FFB41F"/>
<path d="M73.4001 17.284L77.7171 14.0457L72.7739 7.45304L68.4569 10.6914C67.5685 11.3573 66.3664 11.4223 65.411 10.8563C64.4556 10.2904 63.9353 9.20465 64.0915 8.10553L64.8538 2.7642L56.6978 1.59869L55.9355 6.93936C55.7793 8.03982 54.9754 8.93708 53.8993 9.2127C52.8233 9.48898 51.6868 9.08931 51.0204 8.20009L47.7835 3.88209L41.1929 8.82643L44.4292 13.1444C45.095 14.0336 45.16 15.2354 44.5941 16.191C44.0283 17.1466 42.9428 17.667 41.844 17.5107L36.5038 16.7482L35.3379 24.9061L40.6794 25.6686C41.7789 25.8255 42.676 26.6295 42.9515 27.7059C43.2271 28.7822 42.8275 29.9188 41.9385 30.5854L37.6228 33.8237L42.566 40.4158L46.8817 37.1788C47.7701 36.5122 48.9729 36.4465 49.9289 37.0125C50.8843 37.5784 51.4053 38.6648 51.2484 39.7646L50.4794 45.1046L58.6354 46.2708L59.4044 40.9281C59.5613 39.8283 60.3652 38.9317 61.4412 38.6561C62.5173 38.3798 63.6537 38.7802 64.3195 39.6687L67.5578 43.9854L74.1483 39.041L70.9094 34.7244C70.2429 33.8358 70.1772 32.6328 70.7431 31.6765C71.309 30.7209 72.3951 30.1998 73.4946 30.3574L78.8348 31.1206L80.0007 22.9627L74.6605 22.1996C73.5617 22.042 72.6653 21.2386 72.3891 20.1623C72.1135 19.0866 72.5124 17.9506 73.4001 17.284ZM57.67 33.5475C52.3613 33.5475 48.0584 29.2435 48.0584 23.9337C48.0584 18.6246 52.3613 14.32 57.67 14.32C62.9786 14.32 67.2816 18.6246 67.2816 23.9337C67.2816 29.2435 62.9786 33.5475 57.67 33.5475Z" fill="#1CC8EB"/>
<path d="M33.3154 71.6416H47.0463V74.3884H33.3154V71.6416Z" fill="#9E9E9E"/>
<path d="M38.8076 60.6545H41.5538V64.7747H38.8076V60.6545Z" fill="#FFAA00"/>
<path d="M41.5534 57.9078H38.8073C38.8059 54.2764 36.5673 51.0214 33.1775 49.7217C26.42 47.0789 21.7255 40.8557 21.0403 33.6307C20.3551 26.4056 23.7952 19.4106 29.9352 15.5439L31.3921 17.8675C26.1277 21.181 23.177 27.1775 23.7643 33.3718C24.351 39.5655 28.375 44.9008 34.1684 47.1661C38.6189 48.8687 41.5568 53.1418 41.5534 57.9078Z" fill="#FFAA00"/>
<path d="M67.6426 51.0408H74.508C75.2663 51.0408 75.8811 51.655 75.8811 52.4142C75.8811 53.1726 75.2663 53.7876 74.508 53.7876H67.6426C66.8843 53.7876 66.2695 53.1726 66.2695 52.4142C66.2695 51.655 66.8843 51.0408 67.6426 51.0408Z" fill="#FFAA00"/>
<path d="M64.8974 59.2819C65.3828 58.6991 66.2484 58.62 66.831 59.1055L72.9603 64.2135C73.5429 64.699 73.622 65.5647 73.1366 66.1475C72.6505 66.7302 71.785 66.8093 71.2023 66.3238L65.0731 61.2159C64.4905 60.7304 64.412 59.8646 64.8974 59.2819Z" fill="#FFAA00"/>
<path d="M59.4043 62.028C60.1626 62.028 60.7774 62.6422 60.7774 63.4013V70.2683C60.7774 71.0267 60.1626 71.6417 59.4043 71.6417C58.6461 71.6417 58.0312 71.0267 58.0312 70.2683V63.4013C58.0312 62.6422 58.6461 62.028 59.4043 62.028Z" fill="#FFAA00"/>
<path d="M1.3612 23.2792L9.6815 21.2004C10.4177 21.0166 11.1625 21.4639 11.3462 22.1996C11.5299 22.9352 11.0827 23.6803 10.3466 23.864L2.02628 25.9429C1.29013 26.1266 0.545257 25.6793 0.361554 24.9437C0.17785 24.208 0.625041 23.463 1.3612 23.2792Z" fill="#FFAA00"/>
<path d="M3.10722 8.46637C3.54771 7.84942 4.40522 7.70725 5.02203 8.14783L12.3983 13.4181C13.0158 13.8587 13.1586 14.7164 12.7181 15.3333C12.2777 15.9503 11.4201 16.0931 10.8033 15.6519L3.42703 10.3816C2.80954 9.94102 2.66674 9.08332 3.10722 8.46637Z" fill="#FFAA00"/>
<path d="M15.4044 0.224002C16.1392 0.036234 16.8868 0.479501 17.0745 1.21448L19.2025 9.53999C19.3903 10.275 18.9471 11.0234 18.2123 11.2111C17.4775 11.3989 16.7299 10.955 16.5422 10.2206L14.4142 1.89514C14.2265 1.16016 14.6696 0.411771 15.4044 0.224002Z" fill="#FFAA00"/>
</g>
<defs>
<clipPath id="clip0">
<rect width="80" height="80" fill="white"/>
</clipPath>
</defs>
</svg>
