<svg width="80" height="80" viewBox="0 0 80 80" fill="none" xmlns="http://www.w3.org/2000/svg">
<path d="M39.9997 0L14.9375 40L39.9997 80C62.0911 80 79.9997 62.0914 79.9997 40C79.9997 17.9086 62.0911 0 39.9997 0Z" fill="#4FD19B"/>
<path d="M0 40C0 62.0914 17.9086 80 40 80V0C17.9086 0 0 17.9086 0 40Z" fill="#9FECCC"/>
<path d="M40.0001 9.375L29.7207 25.7812L40.0001 42.1875C49.061 42.1875 56.4063 34.8422 56.4063 25.7812C56.4063 16.7203 49.061 9.375 40.0001 9.375Z" fill="#1D8B5D"/>
<path d="M23.5938 25.7812C23.5938 34.8422 30.9391 42.1875 40 42.1875V9.375C30.9391 9.375 23.5938 16.7203 23.5938 25.7812Z" fill="#32CC8B"/>
<path d="M66.3514 52.413C63.2369 48.8934 58.7577 46.875 54.0625 46.875H40L30.625 58.75L40 70.625C50.9878 70.625 61.1931 64.6859 66.6334 55.1253L67.4625 53.6683L66.3514 52.413Z" fill="#1D8B5D"/>
<path d="M25.937 46.875C21.2418 46.875 16.7626 48.8934 13.648 52.413L12.5371 53.6684L13.3662 55.1255C18.8063 64.6859 29.0116 70.625 39.9995 70.625V46.875H25.937Z" fill="#32CC8B"/>
</svg>
