<svg width="18" height="18" viewBox="0 0 18 18" fill="none" xmlns="http://www.w3.org/2000/svg">
<path d="M1.5 4H16.5C16.8978 4 17.2794 3.84196 17.5607 3.56066C17.842 3.27936 18 2.89782 18 2.5C18 2.10218 17.842 1.72064 17.5607 1.43934C17.2794 1.15804 16.8978 1 16.5 1H1.5C1.10218 1 0.720644 1.15804 0.43934 1.43934C0.158035 1.72064 0 2.10218 0 2.5C0 2.89782 0.158035 3.27936 0.43934 3.56066C0.720644 3.84196 1.10218 4 1.5 4Z" fill="#1C2733"/>
<path d="M16.5 7H1.5C1.10218 7 0.720644 7.15804 0.43934 7.43934C0.158035 7.72064 0 8.10218 0 8.5C0 8.89782 0.158035 9.27936 0.43934 9.56066C0.720644 9.84196 1.10218 10 1.5 10H16.5C16.8978 10 17.2794 9.84196 17.5607 9.56066C17.842 9.27936 18 8.89782 18 8.5C18 8.10218 17.842 7.72064 17.5607 7.43934C17.2794 7.15804 16.8978 7 16.5 7Z" fill="#1C2733"/>
<path d="M16.5 13H1.5C1.10218 13 0.720644 13.158 0.43934 13.4393C0.158035 13.7206 0 14.1022 0 14.5C0 14.8978 0.158035 15.2794 0.43934 15.5607C0.720644 15.842 1.10218 16 1.5 16H16.5C16.8978 16 17.2794 15.842 17.5607 15.5607C17.842 15.2794 18 14.8978 18 14.5C18 14.1022 17.842 13.7206 17.5607 13.4393C17.2794 13.158 16.8978 13 16.5 13Z" fill="#1C2733"/>
</svg>
