<svg width="24" height="24" viewBox="0 0 24 24" fill="none" xmlns="http://www.w3.org/2000/svg">
<path fill-rule="evenodd" clip-rule="evenodd" d="M0.100098 4C0.100098 3.50294 0.503041 3.1 1.0001 3.1H3.0001C3.40595 3.1 3.7616 3.37164 3.86838 3.76319L4.51773 6.14412L19.0592 7.10194C19.5323 7.1331 19.9001 7.52591 19.9001 8V14C19.9001 14.4703 19.538 14.8613 19.0691 14.8973L6.06912 15.8973C5.6387 15.9305 5.2454 15.6533 5.13181 15.2368L2.94999 7.2368L2.31268 4.9H1.0001C0.503041 4.9 0.100098 4.49705 0.100098 4ZM7.87323 8.78172C7.75267 8.2995 7.26403 8.00632 6.78182 8.12687C6.2996 8.24742 6.00642 8.73606 6.12697 9.21828L7.12697 13.2183C7.24752 13.7005 7.73616 13.9937 8.21838 13.8731C8.70059 13.7526 8.99378 13.2639 8.87323 12.7817L7.87323 8.78172ZM11.3728 8.35904C11.8649 8.28875 12.3208 8.63066 12.3911 9.12272L12.8911 12.6227C12.9613 13.1148 12.6194 13.5707 12.1274 13.641C11.6353 13.7112 11.1794 13.3693 11.1091 12.8773L10.6091 9.37728C10.5388 8.88522 10.8808 8.42934 11.3728 8.35904ZM16.9001 9.5C16.9001 9.00294 16.4972 8.6 16.0001 8.6C15.503 8.6 15.1001 9.00294 15.1001 9.5V12.5C15.1001 12.9971 15.503 13.4 16.0001 13.4C16.4972 13.4 16.9001 12.9971 16.9001 12.5V9.5ZM10.0001 19C10.0001 20.1046 9.10467 21 8.0001 21C6.89553 21 6.0001 20.1046 6.0001 19C6.0001 17.8954 6.89553 17 8.0001 17C9.10467 17 10.0001 17.8954 10.0001 19ZM16.0001 21C17.1047 21 18.0001 20.1046 18.0001 19C18.0001 17.8954 17.1047 17 16.0001 17C14.8955 17 14.0001 17.8954 14.0001 19C14.0001 20.1046 14.8955 21 16.0001 21Z" fill="#FC1055"/>
</svg>
