<svg width="76" height="80" viewBox="0 0 76 80" fill="none" xmlns="http://www.w3.org/2000/svg">
<path fill-rule="evenodd" clip-rule="evenodd" d="M58.0695 62.7953C55.0283 65.5032 51.4416 67.6085 47.4954 68.9247L46.6931 77.3713C46.5515 78.8617 45.303 80 43.8098 80H31.9797C30.4865 80 29.238 78.8617 29.0964 77.3713L28.2941 68.9247C24.3479 67.6085 20.7611 65.5032 17.72 62.7953L10.0155 66.3255C8.65734 66.9478 7.04996 66.4329 6.30335 65.1362L0.388302 54.8638C-0.35831 53.5671 0.000586008 51.9139 1.21715 51.0458L8.1135 46.1244C7.71095 44.1459 7.49958 42.0977 7.49958 40C7.49958 37.9023 7.71095 35.8541 8.1135 33.8756L1.21715 28.9542C0.000586008 28.0861 -0.35831 26.4329 0.388302 25.1362L6.30335 14.8638C7.04996 13.5671 8.65734 13.0522 10.0155 13.6745L17.72 17.2047C20.7611 14.4968 24.3479 12.3915 28.2941 11.0753L29.0964 2.62872C29.238 1.13826 30.4865 0 31.9797 0L43.8098 0C45.303 0 46.5515 1.13826 46.6931 2.62872L47.4954 11.0753C51.4416 12.3915 55.0283 14.4968 58.0695 17.2047L65.774 13.6745C67.1321 13.0522 68.7395 13.5671 69.4861 14.8638L75.4012 25.1362C76.1478 26.4329 75.7889 28.0861 74.5723 28.9542L67.676 33.8756C68.0785 35.8541 68.2899 37.9023 68.2899 40C68.2899 42.0977 68.0785 44.1459 67.676 46.1244L74.5723 51.0458C75.7889 51.9139 76.1478 53.5671 75.4012 54.8638L69.4861 65.1362C68.7395 66.4329 67.1321 66.9478 65.774 66.3255L58.0695 62.7953ZM37.8947 53.1579C45.1616 53.1579 51.0526 47.2669 51.0526 40C51.0526 32.7331 45.1616 26.8421 37.8947 26.8421C30.6278 26.8421 24.7368 32.7331 24.7368 40C24.7368 47.2669 30.6278 53.1579 37.8947 53.1579Z" fill="#317AE2"/>
<path d="M37.8946 58.9475C48.359 58.9475 56.842 50.4645 56.842 40.0002C56.842 29.5358 48.359 21.0528 37.8946 21.0528C27.4303 21.0528 18.9473 29.5358 18.9473 40.0002C18.9473 50.4645 27.4303 58.9475 37.8946 58.9475Z" stroke="#26292C" stroke-width="3" stroke-linecap="round" stroke-linejoin="round"/>
</svg>
