<svg width="24" height="24" viewBox="0 0 24 24" fill="none" xmlns="http://www.w3.org/2000/svg">
<g clip-path="url(#clip0)">
<path d="M8.44616 10.9834C8.14369 10.9834 7.86436 10.7867 7.77296 10.4821L5.79172 3.87751L0.403618 1.33927C0.0523417 1.1738 -0.0982653 0.75484 0.0672009 0.403564C0.232714 0.0522416 0.651582 -0.0984592 1.00291 0.0671475L6.67469 2.73898C6.85525 2.82401 6.99114 2.98184 7.04851 3.17304L9.11989 10.0781C9.25531 10.5294 8.91631 10.9834 8.44616 10.9834Z" fill="#0A789B"/>
<path d="M9.74959 23.9999C9.27208 23.9999 8.93187 23.532 9.08159 23.0769L10.237 19.5637C10.3583 19.1948 10.7556 18.9941 11.1246 19.1155C11.4935 19.2368 11.6942 19.6341 11.5729 20.0031L10.4174 23.5163C10.3201 23.8122 10.045 23.9999 9.74959 23.9999Z" fill="#0A789B"/>
<path d="M22.4996 12.7031H6.74983C6.12683 12.7031 5.81052 11.9477 6.25109 11.5041L10.5345 7.19772C11.1232 6.60851 12.0794 6.60851 12.6668 7.19632C12.7061 7.23522 12.7699 7.23522 12.8093 7.19632L14.6842 5.32135C15.2716 4.73354 16.2278 4.73354 16.8151 5.32135L22.9969 11.5027C23.4382 11.9439 23.1259 12.7031 22.4996 12.7031Z" fill="#FFDD54"/>
<path d="M22.4999 12.7031H14.625V5.38088L14.6845 5.32135C15.2719 4.73354 16.2281 4.73354 16.8154 5.32135L22.9972 11.5027C23.4385 11.9439 23.1262 12.7031 22.4999 12.7031Z" fill="#FFDD54"/>
<path d="M23.9997 11.9999C23.9997 17.1415 19.7963 21.3278 14.6249 21.3278C9.4737 21.3278 5.29688 17.1356 5.29688 11.9999C5.29688 11.6117 5.61187 11.2968 5.99999 11.2968H23.2966C23.6847 11.2968 23.9997 11.6117 23.9997 11.9999Z" fill="#FF7038"/>
<path d="M23.9999 11.9999C23.9999 17.1415 19.7965 21.3278 14.625 21.3278V11.2968H23.2967C23.6849 11.2968 23.9999 11.6117 23.9999 11.9999Z" fill="#FF2929"/>
<path d="M23.9997 11.9999C23.9997 12.2361 23.9908 12.471 23.9734 12.703H4.49999C4.11187 12.703 3.79688 12.388 3.79688 11.9999C3.79688 11.6117 4.11187 11.2968 4.49999 11.2968H23.2966C23.6847 11.2968 23.9997 11.6117 23.9997 11.9999Z" fill="#FF2929"/>
<path d="M23.9999 11.9999C23.9999 12.2361 23.9909 12.471 23.9736 12.703H14.625V11.2968H23.2967C23.6849 11.2968 23.9999 11.6117 23.9999 11.9999Z" fill="#BE0000"/>
<path d="M18.7499 23.9998C16.7026 23.9998 15.0469 22.2968 15.0469 20.2498C15.0469 18.2079 16.7081 16.5468 18.7499 16.5468C20.7918 16.5468 22.453 18.2079 22.453 20.2498C22.453 22.2971 20.7969 23.9998 18.7499 23.9998Z" fill="#0A789B"/>
<path d="M18.7496 20.953C18.1406 20.953 17.8032 20.2158 18.2523 19.7525C18.5652 19.4487 19.0414 19.4946 19.2934 19.8041C19.6699 20.2661 19.3385 20.953 18.7496 20.953Z" fill="#08475E"/>
</g>
<defs>
<clipPath id="clip0">
<rect width="24" height="24" fill="white"/>
</clipPath>
</defs>
</svg>
